# Blender 3.4.0
# www.blender.org
mtllib brechstange(Crates).mtl
o Cube
v 0.250133 4.917149 -0.270323
v 0.249579 -3.013564 -0.272639
v 0.249873 4.988151 0.270323
v 0.249579 -3.013564 0.272639
v -0.250133 4.917149 -0.270323
v -0.249579 -3.013564 -0.272639
v -0.249873 4.988151 0.270323
v -0.249579 -3.013564 0.272639
v -0.351675 -4.117222 -0.490250
v -0.351675 -4.117222 -0.415653
v 0.351675 -4.117222 -0.490250
v 0.351675 -4.117222 -0.415653
v 0.000000 5.193235 0.081342
v 0.249873 5.181566 0.222102
v -0.249873 5.181566 0.222102
v 0.250133 5.051545 -0.307459
v -0.250133 5.051545 -0.307459
v 0.249873 5.328112 0.177832
v -0.249873 5.328112 0.177832
v 0.250133 5.229055 -0.348231
v -0.250133 5.229055 -0.348231
v 0.249873 5.439226 0.144898
v -0.249873 5.439226 0.144898
v 0.250133 5.482879 -0.400340
v -0.250133 5.482879 -0.400340
v 0.249873 5.501005 0.167038
v -0.249873 5.501005 0.167038
v 0.250133 5.766793 -0.309090
v -0.250133 5.766793 -0.309090
v 0.249873 5.666102 0.259744
v -0.249873 5.666102 0.259744
v 0.250133 6.046268 -0.131171
v -0.250133 6.046268 -0.131171
v 0.234705 5.788723 0.392681
v -0.234705 5.788723 0.392681
v 0.234949 6.201939 0.070484
v -0.234949 6.201939 0.070484
v 0.209146 5.868770 0.531312
v -0.209146 5.868770 0.531312
v 0.209364 6.306152 0.375498
v -0.209364 6.306152 0.375498
v 0.361621 6.166101 1.194809
v -0.361621 6.166101 1.194809
v 0.361998 6.226743 1.226744
v -0.361998 6.226743 1.226744
v 0.209364 6.306152 0.375498
v 0.361998 6.226743 1.226744
vn -0.0000 0.0003 1.0000
vn -0.0000 0.1220 0.9925
vn -0.9993 0.0362 0.0001
vn -1.0000 -0.0000 0.0004
vn -0.9988 0.0488 0.0001
vn -0.9957 0.0921 -0.0000
vn 0.9988 0.0488 0.0001
vn 1.0000 -0.0000 0.0004
vn 0.9993 0.0362 0.0001
vn -0.0000 0.1000 -0.9950
vn -0.0000 -0.1342 -0.9909
vn -0.0000 -1.0000 -0.0000
vn 0.9957 0.0921 -0.0000
vn -0.0000 0.1934 -0.9811
vn -0.0000 -0.5292 0.8485
vn -0.0000 -0.2452 -0.9695
vn -0.0000 -0.2125 -0.9772
vn -0.0000 0.2656 0.9641
vn -1.0000 0.0001 0.0005
vn 1.0000 0.0001 0.0005
vn -1.0000 -0.0000 0.0005
vn -0.0000 0.2867 0.9580
vn -0.0000 0.0542 -0.9985
vn -0.0000 0.4250 -0.9052
vn -0.0000 0.2842 0.9588
vn 1.0000 -0.0000 0.0005
vn 1.0000 -0.0002 0.0004
vn 0.9994 0.0235 0.0268
vn 0.9995 0.0216 0.0247
vn -1.0000 -0.0002 0.0004
vn -0.0000 -0.3374 0.9414
vn -0.0000 -0.4149 0.9098
vn -0.9994 0.0235 0.0268
vn -0.9995 0.0216 0.0247
vn -0.9961 0.0490 0.0729
vn -0.9963 0.0487 0.0702
vn -0.0000 -0.6166 0.7873
vn -0.0000 0.6719 -0.7406
vn -0.0000 0.8773 -0.4800
vn -0.0000 0.9937 -0.1117
vn -0.0000 -0.8002 0.5997
vn 0.9963 0.0487 0.0702
vn 0.9961 0.0490 0.0729
vn -0.9996 0.0098 -0.0261
vn -0.9993 0.0056 -0.0379
vn -0.9805 -0.0486 -0.1905
vn 0.9996 0.0098 -0.0261
vn 0.9993 0.0056 -0.0379
vn -0.0000 -0.8908 0.4545
vn -0.0000 -0.4659 0.8848
vn -0.0000 -0.9126 0.4089
vn -0.0000 0.9957 0.0929
vn 0.9805 -0.0486 -0.1905
vt 0.625000 0.500000
vt 0.375000 0.500000
vt 0.625000 0.750000
vt 0.375000 0.750000
vt 0.625000 0.250000
vt 0.375000 0.250000
vt 0.625000 1.000000
vt 0.625000 0.000000
vt 0.375000 0.000000
vt 0.375000 1.000000
vt 0.125000 0.500000
vt 0.375000 0.250000
vt 0.375000 0.000000
vt 0.125000 0.750000
vt 0.375000 1.000000
vt 0.375000 0.500000
vt 0.375000 0.750000
vt 0.625000 0.750000
vt 0.625000 0.000000
vt 0.625000 1.000000
vt 0.625000 0.500000
vt 0.625000 0.250000
vt 0.625000 0.750000
vt 0.625000 0.000000
vt 0.625000 1.000000
vt 0.625000 0.500000
vt 0.625000 0.250000
vt 0.625000 0.750000
vt 0.625000 0.000000
vt 0.625000 1.000000
vt 0.625000 0.500000
vt 0.625000 0.250000
vt 0.625000 0.750000
vt 0.625000 0.000000
vt 0.625000 1.000000
vt 0.625000 0.500000
vt 0.625000 0.250000
vt 0.625000 0.750000
vt 0.625000 0.000000
vt 0.625000 1.000000
vt 0.625000 0.500000
vt 0.625000 0.250000
vt 0.625000 0.750000
vt 0.625000 0.000000
vt 0.625000 1.000000
vt 0.625000 0.500000
vt 0.625000 0.250000
vt 0.625000 0.750000
vt 0.625000 0.000000
vt 0.625000 1.000000
vt 0.625000 0.500000
vt 0.625000 0.250000
vt 0.625000 0.750000
vt 0.625000 0.000000
vt 0.625000 1.000000
vt 0.625000 0.500000
vt 0.625000 0.250000
s 1
usemtl Material
f 4/4/1 3/3/2 7/7/2 8/10/1
f 8/9/3 7/8/4 5/5/4 6/6/5
f 8/9/3 6/6/5 9/12/6 10/13/6
f 2/2/7 1/1/8 3/3/8 4/4/9
f 6/6/10 5/5/11 1/1/11 2/2/10
f 9/11/12 11/16/12 12/17/12 10/14/12
f 2/2/7 4/4/9 12/17/13 11/16/13
f 6/6/10 2/2/10 11/16/14 9/12/14
f 4/4/15 8/10/15 10/15/15 12/17/15
f 1/1/11 5/5/11 17/22/16 16/21/16
f 16/21/16 17/22/16 21/27/17 20/26/17
f 7/7/2 3/3/2 14/18/18 15/20/18
f 5/5/4 7/8/4 15/19/19 17/22/19
f 3/3/8 1/1/8 16/21/20 14/18/20
f 21/27/19 19/24/19 23/29/21 25/32/21
f 14/18/20 16/21/20 20/26/20 18/23/20
f 17/22/19 15/19/19 19/24/19 21/27/19
f 15/20/18 14/18/18 18/23/22 19/25/22
f 24/31/23 25/32/23 29/37/24 28/36/24
f 19/25/22 18/23/22 22/28/25 23/30/25
f 20/26/17 21/27/17 25/32/23 24/31/23
f 18/23/20 20/26/20 24/31/26 22/28/26
f 26/33/27 28/36/27 32/41/28 30/38/29
f 22/28/26 24/31/26 28/36/27 26/33/27
f 25/32/21 23/29/21 27/34/30 29/37/30
f 23/30/31 22/28/31 26/33/32 27/35/32
f 33/42/33 31/39/34 35/44/35 37/47/36
f 29/37/30 27/34/30 31/39/34 33/42/33
f 27/35/32 26/33/32 30/38/37 31/40/37
f 28/36/24 29/37/24 33/42/38 32/41/38
f 36/46/39 37/47/39 41/52/40 40/51/40
f 31/40/37 30/38/37 34/43/41 35/45/41
f 32/41/38 33/42/38 37/47/39 36/46/39
f 30/38/29 32/41/28 36/46/42 34/43/43
f 41/52/44 39/49/45 43/54/46 45/57/46
f 34/43/43 36/46/42 40/51/47 38/48/48
f 37/47/36 35/44/35 39/49/45 41/52/44
f 35/45/41 34/43/41 38/48/49 39/50/49
f 42/53/50 44/56/50 45/57/50 43/54/50
f 39/50/49 38/48/49 42/53/51 43/55/51
f 40/51/40 41/52/40 45/57/52 44/56/52
f 38/48/48 40/51/47 44/56/53 42/53/53
l 40 46
l 47 44
o Cylinder
v 0.000000 0.286518 -0.401945
v 0.000000 2.286518 -0.401945
v 0.078416 0.286518 -0.394222
v 0.078416 2.286518 -0.394222
v 0.153818 0.286518 -0.371349
v 0.153818 2.286518 -0.371349
v 0.223309 0.286518 -0.334205
v 0.223309 2.286518 -0.334205
v 0.284218 0.286518 -0.284218
v 0.284218 2.286518 -0.284218
v 0.334205 0.286518 -0.223309
v 0.334205 2.286518 -0.223309
v 0.371349 0.286518 -0.153818
v 0.371349 2.286518 -0.153818
v 0.394222 0.286518 -0.078416
v 0.394222 2.286518 -0.078416
v 0.401945 0.286518 0.000000
v 0.401945 2.286518 0.000000
v 0.394222 0.286518 0.078416
v 0.394222 2.286518 0.078416
v 0.371349 0.286518 0.153818
v 0.371349 2.286518 0.153818
v 0.334205 0.286518 0.223309
v 0.334205 2.286518 0.223309
v 0.284218 0.286518 0.284218
v 0.284218 2.286518 0.284218
v 0.223309 0.286518 0.334205
v 0.223309 2.286518 0.334205
v 0.153818 0.286518 0.371349
v 0.153818 2.286518 0.371349
v 0.078416 0.286518 0.394222
v 0.078416 2.286518 0.394222
v 0.000000 0.286518 0.401945
v 0.000000 2.286518 0.401945
v -0.078416 0.286518 0.394222
v -0.078416 2.286518 0.394222
v -0.153818 0.286518 0.371349
v -0.153818 2.286518 0.371349
v -0.223309 0.286518 0.334205
v -0.223309 2.286518 0.334205
v -0.284218 0.286518 0.284218
v -0.284218 2.286518 0.284218
v -0.334205 0.286518 0.223309
v -0.334205 2.286518 0.223309
v -0.371349 0.286518 0.153818
v -0.371349 2.286518 0.153818
v -0.394222 0.286518 0.078416
v -0.394222 2.286518 0.078416
v -0.401945 0.286518 0.000000
v -0.401945 2.286518 0.000000
v -0.394222 0.286518 -0.078416
v -0.394222 2.286518 -0.078416
v -0.371349 0.286518 -0.153818
v -0.371349 2.286518 -0.153818
v -0.334205 0.286518 -0.223309
v -0.334205 2.286518 -0.223309
v -0.284218 0.286518 -0.284218
v -0.284218 2.286518 -0.284218
v -0.223309 0.286518 -0.334205
v -0.223309 2.286518 -0.334205
v -0.153818 0.286518 -0.371349
v -0.153818 2.286518 -0.371349
v -0.078416 0.286518 -0.394222
v -0.078416 2.286518 -0.394222
vn -0.0000 -0.0000 -1.0000
vn 0.1951 -0.0000 -0.9808
vn 0.3827 -0.0000 -0.9239
vn 0.5556 -0.0000 -0.8315
vn 0.7071 -0.0000 -0.7071
vn 0.8315 -0.0000 -0.5556
vn 0.9239 -0.0000 -0.3827
vn 0.9808 -0.0000 -0.1951
vn 1.0000 -0.0000 -0.0000
vn 0.9808 -0.0000 0.1951
vn 0.9239 -0.0000 0.3827
vn 0.8315 -0.0000 0.5556
vn 0.7071 -0.0000 0.7071
vn 0.5556 -0.0000 0.8315
vn 0.3827 -0.0000 0.9239
vn 0.1951 -0.0000 0.9808
vn -0.0000 -0.0000 1.0000
vn -0.1951 -0.0000 0.9808
vn -0.3827 -0.0000 0.9239
vn -0.5556 -0.0000 0.8315
vn -0.7071 -0.0000 0.7071
vn -0.8315 -0.0000 0.5556
vn -0.9239 -0.0000 0.3827
vn -0.9808 -0.0000 0.1951
vn -1.0000 -0.0000 -0.0000
vn -0.9808 -0.0000 -0.1951
vn -0.9239 -0.0000 -0.3827
vn -0.8315 -0.0000 -0.5556
vn -0.7071 -0.0000 -0.7071
vn -0.5556 -0.0000 -0.8315
vn -0.3827 -0.0000 -0.9239
vn -0.1951 -0.0000 -0.9808
vn -0.0000 1.0000 -0.0000
vn -0.0000 -1.0000 -0.0000
vt 1.000000 0.000000
vt 0.000000 0.000000
vt 1.000000 1.000000
vt 0.000000 1.000000
vt 0.968750 0.000000
vt 0.968750 1.000000
vt 0.937500 0.000000
vt 0.937500 1.000000
vt 0.906250 0.000000
vt 0.906250 1.000000
vt 0.875000 0.000000
vt 0.875000 1.000000
vt 0.843750 0.000000
vt 0.843750 1.000000
vt 0.812500 0.000000
vt 0.812500 1.000000
vt 0.781250 0.000000
vt 0.781250 1.000000
vt 0.750000 0.000000
vt 0.750000 1.000000
vt 0.718750 0.000000
vt 0.718750 1.000000
vt 0.687500 0.000000
vt 0.687500 1.000000
vt 0.656250 0.000000
vt 0.656250 1.000000
vt 0.625000 0.000000
vt 0.625000 1.000000
vt 0.593750 0.000000
vt 0.593750 1.000000
vt 0.562500 0.000000
vt 0.562500 1.000000
vt 0.531250 0.000000
vt 0.531250 1.000000
vt 0.500000 0.000000
vt 0.500000 1.000000
vt 0.468750 0.000000
vt 0.468750 1.000000
vt 0.437500 0.000000
vt 0.437500 1.000000
vt 0.406250 0.000000
vt 0.406250 1.000000
vt 0.375000 0.000000
vt 0.375000 1.000000
vt 0.343750 0.000000
vt 0.343750 1.000000
vt 0.312500 0.000000
vt 0.312500 1.000000
vt 0.281250 0.000000
vt 0.281250 1.000000
vt 0.250000 0.000000
vt 0.250000 1.000000
vt 0.218750 0.000000
vt 0.218750 1.000000
vt 0.187500 0.000000
vt 0.187500 1.000000
vt 0.156250 0.000000
vt 0.156250 1.000000
vt 0.125000 0.000000
vt 0.125000 1.000000
vt 0.093750 0.000000
vt 0.093750 1.000000
vt 0.062500 0.000000
vt 0.062500 1.000000
vt 0.031250 0.000000
vt 0.031250 1.000000
s 1
f 48/58/54 49/60/54 51/63/55 50/62/55
f 50/62/55 51/63/55 53/65/56 52/64/56
f 52/64/56 53/65/56 55/67/57 54/66/57
f 54/66/57 55/67/57 57/69/58 56/68/58
f 56/68/58 57/69/58 59/71/59 58/70/59
f 58/70/59 59/71/59 61/73/60 60/72/60
f 60/72/60 61/73/60 63/75/61 62/74/61
f 62/74/61 63/75/61 65/77/62 64/76/62
f 64/76/62 65/77/62 67/79/63 66/78/63
f 66/78/63 67/79/63 69/81/64 68/80/64
f 68/80/64 69/81/64 71/83/65 70/82/65
f 70/82/65 71/83/65 73/85/66 72/84/66
f 72/84/66 73/85/66 75/87/67 74/86/67
f 74/86/67 75/87/67 77/89/68 76/88/68
f 76/88/68 77/89/68 79/91/69 78/90/69
f 78/90/69 79/91/69 81/93/70 80/92/70
f 80/92/70 81/93/70 83/95/71 82/94/71
f 82/94/71 83/95/71 85/97/72 84/96/72
f 84/96/72 85/97/72 87/99/73 86/98/73
f 86/98/73 87/99/73 89/101/74 88/100/74
f 88/100/74 89/101/74 91/103/75 90/102/75
f 90/102/75 91/103/75 93/105/76 92/104/76
f 92/104/76 93/105/76 95/107/77 94/106/77
f 94/106/77 95/107/77 97/109/78 96/108/78
f 96/108/78 97/109/78 99/111/79 98/110/79
f 98/110/79 99/111/79 101/113/80 100/112/80
f 100/112/80 101/113/80 103/115/81 102/114/81
f 102/114/81 103/115/81 105/117/82 104/116/82
f 104/116/82 105/117/82 107/119/83 106/118/83
f 106/118/83 107/119/83 109/121/84 108/120/84
f 108/120/84 109/121/84 111/123/85 110/122/85
f 110/122/85 111/123/85 49/61/54 48/59/54
f 49/61/86 111/123/86 109/121/86 107/119/86 105/117/86 103/115/86 101/113/86 99/111/86 97/109/86 95/107/86 93/105/86 91/103/86 89/101/86 87/99/86 85/97/86 83/95/86 81/93/86 79/91/86 77/89/86 75/87/86 73/85/86 71/83/86 69/81/86 67/79/86 65/77/86 63/75/86 61/73/86 59/71/86 57/69/86 55/67/86 53/65/86 51/63/86
f 50/62/87 52/64/87 54/66/87 56/68/87 58/70/87 60/72/87 62/74/87 64/76/87 66/78/87 68/80/87 70/82/87 72/84/87 74/86/87 76/88/87 78/90/87 80/92/87 82/94/87 84/96/87 86/98/87 88/100/87 90/102/87 92/104/87 94/106/87 96/108/87 98/110/87 100/112/87 102/114/87 104/116/87 106/118/87 108/120/87 110/122/87 48/59/87
